<?xml version="1.0" standalone="no"?>
<!DOCTYPE svg PUBLIC "-//W3C//DTD SVG 20010904//EN"
 "http://www.w3.org/TR/2001/REC-SVG-20010904/DTD/svg10.dtd">
<svg version="1.0" xmlns="http://www.w3.org/2000/svg"
 width="685.000000pt" height="685.000000pt" viewBox="0 0 685.000000 685.000000"
 preserveAspectRatio="xMidYMid meet">
<metadata>
Created by potrace 1.14, written by Peter Selinger 2001-2017
</metadata>
<g transform="translate(0.000000,685.000000) scale(0.100000,-0.100000)"
fill="#000000" stroke="none">
<path d="M265 5428 c-73 -24 -165 -89 -165 -115 0 -7 -4 -13 -8 -13 -4 0 -16
-24 -26 -54 -33 -96 -5 -204 73 -284 20 -21 108 -96 196 -167 188 -152 190
-154 218 -179 12 -10 67 -55 122 -100 55 -44 108 -88 119 -96 10 -8 23 -20 30
-25 9 -9 75 -62 190 -155 10 -8 23 -20 30 -25 9 -9 75 -62 190 -155 10 -8 23
-20 30 -25 6 -6 58 -49 116 -95 58 -47 110 -89 116 -95 14 -13 57 -48 279
-229 99 -81 189 -155 200 -164 11 -9 43 -35 70 -57 28 -22 52 -42 55 -45 3 -3
41 -34 85 -70 44 -35 85 -69 91 -75 6 -5 28 -23 50 -40 21 -16 79 -64 128
-105 119 -98 115 -95 159 -129 l38 -30 -81 -58 c-45 -32 -102 -71 -126 -88
-109 -76 -1046 -736 -1074 -758 -28 -21 -71 -84 -81 -118 -48 -163 77 -342
281 -404 60 -18 119 -20 1350 -29 338 -3 975 -8 1415 -12 440 -4 1115 -7 1500
-8 l700 -1 58 27 c153 72 217 229 149 369 -32 65 -65 98 -241 239 -25 19 -87
70 -140 114 -53 43 -113 93 -134 110 -22 17 -48 38 -58 48 -11 9 -38 31 -61
50 -23 18 -46 38 -52 43 -9 8 -134 110 -240 195 -10 8 -26 22 -35 30 -9 8 -37
31 -61 50 -25 19 -47 37 -50 40 -3 4 -66 55 -140 115 -74 60 -137 112 -140
115 -3 3 -39 33 -80 65 -41 32 -77 62 -80 65 -4 5 -172 142 -240 196 -8 7 -51
42 -95 79 -44 36 -87 72 -95 78 -8 7 -52 43 -97 80 l-82 68 -73 -21 c-40 -11
-86 -24 -103 -29 -56 -17 -255 -72 -275 -76 -11 -2 -24 -6 -28 -9 -5 -3 -19
-7 -33 -10 -28 -5 -497 -135 -519 -143 -8 -3 -21 -7 -28 -9 -13 -2 -204 -55
-287 -79 -187 -54 -267 -76 -271 -72 -2 2 13 15 34 28 20 14 177 124 347 244
257 181 504 355 575 405 244 172 432 304 495 348 43 32 97 67 120 80 22 12 85
54 140 93 55 38 145 102 200 140 55 39 109 77 120 85 26 19 185 131 205 144
157 106 223 158 266 212 19 23 35 83 35 129 1 156 -137 300 -325 339 -39 8
-195 13 -455 15 -218 2 -760 6 -1206 10 -445 3 -1039 8 -1320 10 -1833 15
-1905 15 -1970 -7z"/>
</g>
</svg>
