<svg width="145" height="35" viewBox="0 0 145 35" fill="none" xmlns="http://www.w3.org/2000/svg">
<path fill-rule="evenodd" clip-rule="evenodd" d="M1.33718 6.29376C-0.234286 5.00967 0.651752 2.97695 2.77528 2.99417L32.4185 3.23353C34.7214 3.25215 36.0106 5.60341 34.3547 6.76501L29.1528 10.4141L29.1245 10.3737L18.9863 17.4856L29.2952 14.6104L42.0278 25.0152C43.5993 26.2993 42.7134 28.3319 40.5897 28.3148L10.9466 28.0755C8.64363 28.0569 7.35447 25.7054 9.01023 24.5439L16.8987 19.0102L1.33718 6.29376Z" fill="#3E45EB"/>
<mask id="path-2-outside-1_24_17" maskUnits="userSpaceOnUse" x="48" y="0" width="97" height="35" fill="black">
<rect fill="white" x="48" width="97" height="35"/>
<path d="M50.2568 22.9887C51.1965 23.3501 52.1985 23.655 53.2628 23.9035C54.3384 24.1407 55.5045 24.2592 56.7613 24.2592C57.5765 24.2592 58.3237 24.1858 59.0031 24.039C59.6824 23.8922 60.2655 23.6607 60.7523 23.3445C61.2505 23.0282 61.6354 22.6273 61.9072 22.1417C62.1902 21.6448 62.3318 21.0518 62.3318 20.3629C62.3318 19.6176 62.1789 19.0246 61.8732 18.5842C61.5788 18.1437 61.1599 17.7823 60.6165 17.5C60.073 17.2177 59.4163 16.9805 58.6464 16.7885C57.8765 16.5965 57.0217 16.3819 56.082 16.1448C55.029 15.8737 54.0666 15.5631 53.1948 15.213C52.3344 14.8629 51.5984 14.4112 50.987 13.8578C50.3756 13.3044 49.9001 12.6211 49.5605 11.808C49.2208 10.9949 49.051 9.98973 49.051 8.79261C49.051 7.99076 49.1812 7.27361 49.4416 6.64117C49.7133 6.00873 50.0756 5.46099 50.5285 4.99795C50.9814 4.52361 51.5022 4.12269 52.0909 3.79517C52.691 3.46766 53.3137 3.20226 53.9591 2.99897C54.6158 2.79569 55.2838 2.64887 55.9631 2.55852C56.6424 2.46817 57.2878 2.423 57.8992 2.423C58.3294 2.423 58.8446 2.44559 59.4446 2.49076C60.056 2.53593 60.7014 2.62064 61.3807 2.74487C62.0713 2.8578 62.779 3.01027 63.5036 3.20226C64.2395 3.39425 64.9472 3.63706 65.6265 3.9307L64.4207 6.87834C63.5149 6.55082 62.5695 6.28542 61.5845 6.08214C60.6108 5.87885 59.5862 5.77721 58.5106 5.77721C57.8312 5.77721 57.2085 5.83368 56.6424 5.94661C56.0763 6.04825 55.5838 6.21766 55.1649 6.45482C54.7573 6.69199 54.4403 7.00257 54.2138 7.38655C53.9874 7.77053 53.8742 8.23357 53.8742 8.77567C53.8742 9.47587 54.01 10.0236 54.2818 10.4189C54.5648 10.8142 54.9667 11.136 55.4876 11.3845C56.0084 11.633 56.6424 11.8475 57.3897 12.0282C58.1482 12.1976 59.0031 12.4066 59.9541 12.655C60.9958 12.9261 61.9525 13.2479 62.8243 13.6206C63.7074 13.982 64.466 14.4564 65.1 15.0436C65.7454 15.6196 66.2492 16.3368 66.6115 17.1951C66.9738 18.0534 67.155 19.1093 67.155 20.3629C67.155 21.4697 66.9795 22.4184 66.6285 23.2089C66.2775 23.9995 65.819 24.6658 65.2529 25.2079C64.6867 25.7387 64.0414 26.1622 63.3168 26.4784C62.5922 26.7947 61.8562 27.0375 61.109 27.2069C60.3617 27.3763 59.6371 27.4836 58.9351 27.5287C58.2332 27.5852 57.6161 27.6134 57.084 27.6134C56.5632 27.6022 55.9744 27.5683 55.3177 27.5118C54.6724 27.4553 53.993 27.365 53.2798 27.2408C52.5665 27.1165 51.8419 26.9528 51.1059 26.7495C50.3813 26.5349 49.6793 26.2752 49 25.9702L50.2568 22.9887Z"/>
<path d="M86.8697 23.9204C87.1867 23.1638 87.4924 22.4466 87.7868 21.769C88.0925 21.0914 88.3586 20.4251 88.585 19.77C88.8228 19.1037 89.0096 18.4261 89.1454 17.7372C89.2813 17.037 89.3492 16.2859 89.3492 15.4841C89.3492 15.0775 89.3266 14.6879 89.2813 14.3152C89.236 13.9425 89.1624 13.5529 89.0605 13.1463C88.9699 12.7397 88.8511 12.2993 88.7039 11.8249C88.568 11.3393 88.3982 10.7859 88.1944 10.1648C88.5907 10.0406 88.9699 9.92762 89.3323 9.82598C89.6946 9.72433 90.0512 9.62834 90.4022 9.53799C90.7532 9.44764 91.1042 9.36294 91.4551 9.28388C91.8061 9.20483 92.1798 9.12577 92.576 9.04671C92.8364 9.58881 93.0516 10.0575 93.2214 10.4528C93.3912 10.848 93.5327 11.232 93.646 11.6047C93.7705 11.9887 93.8611 12.3783 93.9177 12.7736C93.9856 13.1576 94.0196 13.5642 94.0196 13.9933C94.0196 14.7387 93.9347 15.501 93.7648 16.2803C93.6063 17.0483 93.3969 17.8275 93.1365 18.6181C92.8647 19.4086 92.5477 20.1992 92.1854 20.9897C91.8231 21.769 91.4438 22.537 91.0475 23.2936C90.6626 24.039 90.272 24.7618 89.8757 25.462C89.4794 26.1622 89.1058 26.8229 88.7548 27.444H83.3202L81.7238 21.2777L79.1424 27.444H73.7757L69.1903 9.57187H73.7248L77.3252 23.9204L80.535 16.4497L78.7348 9.57187H83.3542L86.8697 23.9204Z"/>
<path d="M100.199 1C100.584 1 100.946 1.07341 101.286 1.22023C101.637 1.36704 101.937 1.57033 102.186 1.83008C102.446 2.07854 102.65 2.37782 102.797 2.72793C102.944 3.06674 103.018 3.42813 103.018 3.81212C103.018 4.20739 102.944 4.57444 102.797 4.91324C102.65 5.25205 102.446 5.55133 102.186 5.81109C101.937 6.07084 101.637 6.27413 101.286 6.42094C100.946 6.56776 100.584 6.64117 100.199 6.64117C99.8025 6.64117 99.4346 6.56776 99.0949 6.42094C98.7552 6.27413 98.4552 6.07084 98.1948 5.81109C97.9344 5.55133 97.7306 5.25205 97.5834 4.91324C97.4362 4.57444 97.3626 4.20739 97.3626 3.81212C97.3626 3.42813 97.4362 3.06674 97.5834 2.72793C97.7306 2.37782 97.9344 2.07854 98.1948 1.83008C98.4552 1.57033 98.7552 1.36704 99.0949 1.22023C99.4346 1.07341 99.8025 1 100.199 1ZM102.508 9.58881V27.2069H97.8551V9.58881H102.508Z"/>
<path d="M111.835 12.4179C113.149 10.2721 115.005 9.19918 117.406 9.19918C118.594 9.19918 119.596 9.4307 120.412 9.89374C121.227 10.3568 121.883 10.9836 122.382 11.7741C122.891 12.5534 123.253 13.4625 123.469 14.5015C123.695 15.5293 123.808 16.6191 123.808 17.771C123.808 19.3973 123.587 20.826 123.146 22.057C122.716 23.2767 122.104 24.2988 121.312 25.1232C120.519 25.9476 119.568 26.5688 118.459 26.9867C117.36 27.4045 116.143 27.6134 114.807 27.6134C114.32 27.6134 113.845 27.5909 113.381 27.5457C112.928 27.5005 112.469 27.444 112.005 27.3763V34H107.369V15.3486C107.369 14.8178 107.363 14.3208 107.352 13.8578C107.352 13.3948 107.335 12.9543 107.301 12.5364C107.267 12.1186 107.216 11.712 107.148 11.3167C107.091 10.9102 107.006 10.5036 106.893 10.097C107.618 9.89374 108.303 9.72433 108.948 9.58881C109.593 9.45328 110.29 9.32341 111.037 9.19918C111.116 9.43634 111.19 9.66222 111.258 9.8768C111.326 10.0914 111.382 10.3229 111.428 10.5714C111.484 10.8198 111.529 11.0909 111.563 11.3845C111.597 11.6781 111.626 12.0226 111.648 12.4179H111.835ZM111.954 23.8866C112.86 24.1124 113.703 24.2254 114.485 24.2254C115.153 24.2254 115.77 24.135 116.336 23.9543C116.913 23.7736 117.406 23.48 117.813 23.0734C118.232 22.6668 118.56 22.1417 118.798 21.4979C119.036 20.8542 119.155 20.0693 119.155 19.1432C119.155 18.1833 119.115 17.3024 119.036 16.5005C118.957 15.6987 118.798 15.0098 118.56 14.4338C118.323 13.8465 117.983 13.3948 117.541 13.0785C117.1 12.751 116.517 12.5873 115.792 12.5873C115.26 12.5873 114.79 12.6946 114.383 12.9091C113.986 13.1237 113.624 13.423 113.296 13.807C113.047 14.078 112.815 14.3886 112.599 14.7387C112.384 15.0775 112.169 15.4446 111.954 15.8398V23.8866Z"/>
<path d="M142.743 26.4107C142.279 26.6027 141.77 26.7721 141.215 26.9189C140.671 27.0657 140.1 27.1899 139.5 27.2916C138.899 27.3932 138.288 27.4723 137.665 27.5287C137.054 27.5852 136.454 27.6134 135.865 27.6134C132.887 27.6134 130.634 26.902 129.106 25.479C127.589 24.0447 126.83 21.8537 126.83 18.9061C126.83 17.596 126.983 16.3537 127.289 15.1792C127.594 14.0046 128.087 12.9769 128.766 12.096C129.457 11.2038 130.357 10.4979 131.466 9.97844C132.587 9.45893 133.957 9.19918 135.576 9.19918C138.407 9.19918 140.518 9.9502 141.911 11.4523C143.304 12.943 144 15.2243 144 18.2962V19.6345H131.45C131.472 20.4025 131.563 21.0801 131.721 21.6674C131.88 22.2546 132.14 22.7515 132.502 23.1581C132.876 23.5534 133.363 23.8583 133.963 24.0729C134.563 24.2762 135.316 24.3778 136.222 24.3778C137.014 24.3778 137.869 24.2818 138.786 24.0898C139.703 23.8866 140.66 23.5986 141.656 23.2259L142.743 26.4107ZM139.347 16.6191C139.267 13.8296 138.011 12.4348 135.576 12.4348C134.32 12.4348 133.363 12.7962 132.706 13.519C132.061 14.2418 131.665 15.2752 131.517 16.6191H139.347Z"/>
</mask>
<path d="M50.2568 22.9887C51.1965 23.3501 52.1985 23.655 53.2628 23.9035C54.3384 24.1407 55.5045 24.2592 56.7613 24.2592C57.5765 24.2592 58.3237 24.1858 59.0031 24.039C59.6824 23.8922 60.2655 23.6607 60.7523 23.3445C61.2505 23.0282 61.6354 22.6273 61.9072 22.1417C62.1902 21.6448 62.3318 21.0518 62.3318 20.3629C62.3318 19.6176 62.1789 19.0246 61.8732 18.5842C61.5788 18.1437 61.1599 17.7823 60.6165 17.5C60.073 17.2177 59.4163 16.9805 58.6464 16.7885C57.8765 16.5965 57.0217 16.3819 56.082 16.1448C55.029 15.8737 54.0666 15.5631 53.1948 15.213C52.3344 14.8629 51.5984 14.4112 50.987 13.8578C50.3756 13.3044 49.9001 12.6211 49.5605 11.808C49.2208 10.9949 49.051 9.98973 49.051 8.79261C49.051 7.99076 49.1812 7.27361 49.4416 6.64117C49.7133 6.00873 50.0756 5.46099 50.5285 4.99795C50.9814 4.52361 51.5022 4.12269 52.0909 3.79517C52.691 3.46766 53.3137 3.20226 53.9591 2.99897C54.6158 2.79569 55.2838 2.64887 55.9631 2.55852C56.6424 2.46817 57.2878 2.423 57.8992 2.423C58.3294 2.423 58.8446 2.44559 59.4446 2.49076C60.056 2.53593 60.7014 2.62064 61.3807 2.74487C62.0713 2.8578 62.779 3.01027 63.5036 3.20226C64.2395 3.39425 64.9472 3.63706 65.6265 3.9307L64.4207 6.87834C63.5149 6.55082 62.5695 6.28542 61.5845 6.08214C60.6108 5.87885 59.5862 5.77721 58.5106 5.77721C57.8312 5.77721 57.2085 5.83368 56.6424 5.94661C56.0763 6.04825 55.5838 6.21766 55.1649 6.45482C54.7573 6.69199 54.4403 7.00257 54.2138 7.38655C53.9874 7.77053 53.8742 8.23357 53.8742 8.77567C53.8742 9.47587 54.01 10.0236 54.2818 10.4189C54.5648 10.8142 54.9667 11.136 55.4876 11.3845C56.0084 11.633 56.6424 11.8475 57.3897 12.0282C58.1482 12.1976 59.0031 12.4066 59.9541 12.655C60.9958 12.9261 61.9525 13.2479 62.8243 13.6206C63.7074 13.982 64.466 14.4564 65.1 15.0436C65.7454 15.6196 66.2492 16.3368 66.6115 17.1951C66.9738 18.0534 67.155 19.1093 67.155 20.3629C67.155 21.4697 66.9795 22.4184 66.6285 23.2089C66.2775 23.9995 65.819 24.6658 65.2529 25.2079C64.6867 25.7387 64.0414 26.1622 63.3168 26.4784C62.5922 26.7947 61.8562 27.0375 61.109 27.2069C60.3617 27.3763 59.6371 27.4836 58.9351 27.5287C58.2332 27.5852 57.6161 27.6134 57.084 27.6134C56.5632 27.6022 55.9744 27.5683 55.3177 27.5118C54.6724 27.4553 53.993 27.365 53.2798 27.2408C52.5665 27.1165 51.8419 26.9528 51.1059 26.7495C50.3813 26.5349 49.6793 26.2752 49 25.9702L50.2568 22.9887Z" fill="black"/>
<path d="M86.8697 23.9204C87.1867 23.1638 87.4924 22.4466 87.7868 21.769C88.0925 21.0914 88.3586 20.4251 88.585 19.77C88.8228 19.1037 89.0096 18.4261 89.1454 17.7372C89.2813 17.037 89.3492 16.2859 89.3492 15.4841C89.3492 15.0775 89.3266 14.6879 89.2813 14.3152C89.236 13.9425 89.1624 13.5529 89.0605 13.1463C88.9699 12.7397 88.8511 12.2993 88.7039 11.8249C88.568 11.3393 88.3982 10.7859 88.1944 10.1648C88.5907 10.0406 88.9699 9.92762 89.3323 9.82598C89.6946 9.72433 90.0512 9.62834 90.4022 9.53799C90.7532 9.44764 91.1042 9.36294 91.4551 9.28388C91.8061 9.20483 92.1798 9.12577 92.576 9.04671C92.8364 9.58881 93.0516 10.0575 93.2214 10.4528C93.3912 10.848 93.5327 11.232 93.646 11.6047C93.7705 11.9887 93.8611 12.3783 93.9177 12.7736C93.9856 13.1576 94.0196 13.5642 94.0196 13.9933C94.0196 14.7387 93.9347 15.501 93.7648 16.2803C93.6063 17.0483 93.3969 17.8275 93.1365 18.6181C92.8647 19.4086 92.5477 20.1992 92.1854 20.9897C91.8231 21.769 91.4438 22.537 91.0475 23.2936C90.6626 24.039 90.272 24.7618 89.8757 25.462C89.4794 26.1622 89.1058 26.8229 88.7548 27.444H83.3202L81.7238 21.2777L79.1424 27.444H73.7757L69.1903 9.57187H73.7248L77.3252 23.9204L80.535 16.4497L78.7348 9.57187H83.3542L86.8697 23.9204Z" fill="black"/>
<path d="M100.199 1C100.584 1 100.946 1.07341 101.286 1.22023C101.637 1.36704 101.937 1.57033 102.186 1.83008C102.446 2.07854 102.65 2.37782 102.797 2.72793C102.944 3.06674 103.018 3.42813 103.018 3.81212C103.018 4.20739 102.944 4.57444 102.797 4.91324C102.65 5.25205 102.446 5.55133 102.186 5.81109C101.937 6.07084 101.637 6.27413 101.286 6.42094C100.946 6.56776 100.584 6.64117 100.199 6.64117C99.8025 6.64117 99.4346 6.56776 99.0949 6.42094C98.7552 6.27413 98.4552 6.07084 98.1948 5.81109C97.9344 5.55133 97.7306 5.25205 97.5834 4.91324C97.4362 4.57444 97.3626 4.20739 97.3626 3.81212C97.3626 3.42813 97.4362 3.06674 97.5834 2.72793C97.7306 2.37782 97.9344 2.07854 98.1948 1.83008C98.4552 1.57033 98.7552 1.36704 99.0949 1.22023C99.4346 1.07341 99.8025 1 100.199 1ZM102.508 9.58881V27.2069H97.8551V9.58881H102.508Z" fill="black"/>
<path d="M111.835 12.4179C113.149 10.2721 115.005 9.19918 117.406 9.19918C118.594 9.19918 119.596 9.4307 120.412 9.89374C121.227 10.3568 121.883 10.9836 122.382 11.7741C122.891 12.5534 123.253 13.4625 123.469 14.5015C123.695 15.5293 123.808 16.6191 123.808 17.771C123.808 19.3973 123.587 20.826 123.146 22.057C122.716 23.2767 122.104 24.2988 121.312 25.1232C120.519 25.9476 119.568 26.5688 118.459 26.9867C117.36 27.4045 116.143 27.6134 114.807 27.6134C114.32 27.6134 113.845 27.5909 113.381 27.5457C112.928 27.5005 112.469 27.444 112.005 27.3763V34H107.369V15.3486C107.369 14.8178 107.363 14.3208 107.352 13.8578C107.352 13.3948 107.335 12.9543 107.301 12.5364C107.267 12.1186 107.216 11.712 107.148 11.3167C107.091 10.9102 107.006 10.5036 106.893 10.097C107.618 9.89374 108.303 9.72433 108.948 9.58881C109.593 9.45328 110.29 9.32341 111.037 9.19918C111.116 9.43634 111.19 9.66222 111.258 9.8768C111.326 10.0914 111.382 10.3229 111.428 10.5714C111.484 10.8198 111.529 11.0909 111.563 11.3845C111.597 11.6781 111.626 12.0226 111.648 12.4179H111.835ZM111.954 23.8866C112.86 24.1124 113.703 24.2254 114.485 24.2254C115.153 24.2254 115.77 24.135 116.336 23.9543C116.913 23.7736 117.406 23.48 117.813 23.0734C118.232 22.6668 118.56 22.1417 118.798 21.4979C119.036 20.8542 119.155 20.0693 119.155 19.1432C119.155 18.1833 119.115 17.3024 119.036 16.5005C118.957 15.6987 118.798 15.0098 118.56 14.4338C118.323 13.8465 117.983 13.3948 117.541 13.0785C117.1 12.751 116.517 12.5873 115.792 12.5873C115.26 12.5873 114.79 12.6946 114.383 12.9091C113.986 13.1237 113.624 13.423 113.296 13.807C113.047 14.078 112.815 14.3886 112.599 14.7387C112.384 15.0775 112.169 15.4446 111.954 15.8398V23.8866Z" fill="black"/>
<path d="M142.743 26.4107C142.279 26.6027 141.77 26.7721 141.215 26.9189C140.671 27.0657 140.1 27.1899 139.5 27.2916C138.899 27.3932 138.288 27.4723 137.665 27.5287C137.054 27.5852 136.454 27.6134 135.865 27.6134C132.887 27.6134 130.634 26.902 129.106 25.479C127.589 24.0447 126.83 21.8537 126.83 18.9061C126.83 17.596 126.983 16.3537 127.289 15.1792C127.594 14.0046 128.087 12.9769 128.766 12.096C129.457 11.2038 130.357 10.4979 131.466 9.97844C132.587 9.45893 133.957 9.19918 135.576 9.19918C138.407 9.19918 140.518 9.9502 141.911 11.4523C143.304 12.943 144 15.2243 144 18.2962V19.6345H131.45C131.472 20.4025 131.563 21.0801 131.721 21.6674C131.88 22.2546 132.14 22.7515 132.502 23.1581C132.876 23.5534 133.363 23.8583 133.963 24.0729C134.563 24.2762 135.316 24.3778 136.222 24.3778C137.014 24.3778 137.869 24.2818 138.786 24.0898C139.703 23.8866 140.66 23.5986 141.656 23.2259L142.743 26.4107ZM139.347 16.6191C139.267 13.8296 138.011 12.4348 135.576 12.4348C134.32 12.4348 133.363 12.7962 132.706 13.519C132.061 14.2418 131.665 15.2752 131.517 16.6191H139.347Z" fill="black"/>
<path d="M50.2568 22.9887C51.1965 23.3501 52.1985 23.655 53.2628 23.9035C54.3384 24.1407 55.5045 24.2592 56.7613 24.2592C57.5765 24.2592 58.3237 24.1858 59.0031 24.039C59.6824 23.8922 60.2655 23.6607 60.7523 23.3445C61.2505 23.0282 61.6354 22.6273 61.9072 22.1417C62.1902 21.6448 62.3318 21.0518 62.3318 20.3629C62.3318 19.6176 62.1789 19.0246 61.8732 18.5842C61.5788 18.1437 61.1599 17.7823 60.6165 17.5C60.073 17.2177 59.4163 16.9805 58.6464 16.7885C57.8765 16.5965 57.0217 16.3819 56.082 16.1448C55.029 15.8737 54.0666 15.5631 53.1948 15.213C52.3344 14.8629 51.5984 14.4112 50.987 13.8578C50.3756 13.3044 49.9001 12.6211 49.5605 11.808C49.2208 10.9949 49.051 9.98973 49.051 8.79261C49.051 7.99076 49.1812 7.27361 49.4416 6.64117C49.7133 6.00873 50.0756 5.46099 50.5285 4.99795C50.9814 4.52361 51.5022 4.12269 52.0909 3.79517C52.691 3.46766 53.3137 3.20226 53.9591 2.99897C54.6158 2.79569 55.2838 2.64887 55.9631 2.55852C56.6424 2.46817 57.2878 2.423 57.8992 2.423C58.3294 2.423 58.8446 2.44559 59.4446 2.49076C60.056 2.53593 60.7014 2.62064 61.3807 2.74487C62.0713 2.8578 62.779 3.01027 63.5036 3.20226C64.2395 3.39425 64.9472 3.63706 65.6265 3.9307L64.4207 6.87834C63.5149 6.55082 62.5695 6.28542 61.5845 6.08214C60.6108 5.87885 59.5862 5.77721 58.5106 5.77721C57.8312 5.77721 57.2085 5.83368 56.6424 5.94661C56.0763 6.04825 55.5838 6.21766 55.1649 6.45482C54.7573 6.69199 54.4403 7.00257 54.2138 7.38655C53.9874 7.77053 53.8742 8.23357 53.8742 8.77567C53.8742 9.47587 54.01 10.0236 54.2818 10.4189C54.5648 10.8142 54.9667 11.136 55.4876 11.3845C56.0084 11.633 56.6424 11.8475 57.3897 12.0282C58.1482 12.1976 59.0031 12.4066 59.9541 12.655C60.9958 12.9261 61.9525 13.2479 62.8243 13.6206C63.7074 13.982 64.466 14.4564 65.1 15.0436C65.7454 15.6196 66.2492 16.3368 66.6115 17.1951C66.9738 18.0534 67.155 19.1093 67.155 20.3629C67.155 21.4697 66.9795 22.4184 66.6285 23.2089C66.2775 23.9995 65.819 24.6658 65.2529 25.2079C64.6867 25.7387 64.0414 26.1622 63.3168 26.4784C62.5922 26.7947 61.8562 27.0375 61.109 27.2069C60.3617 27.3763 59.6371 27.4836 58.9351 27.5287C58.2332 27.5852 57.6161 27.6134 57.084 27.6134C56.5632 27.6022 55.9744 27.5683 55.3177 27.5118C54.6724 27.4553 53.993 27.365 53.2798 27.2408C52.5665 27.1165 51.8419 26.9528 51.1059 26.7495C50.3813 26.5349 49.6793 26.2752 49 25.9702L50.2568 22.9887Z" stroke="black" stroke-width="0.701031" mask="url(#path-2-outside-1_24_17)"/>
<path d="M86.8697 23.9204C87.1867 23.1638 87.4924 22.4466 87.7868 21.769C88.0925 21.0914 88.3586 20.4251 88.585 19.77C88.8228 19.1037 89.0096 18.4261 89.1454 17.7372C89.2813 17.037 89.3492 16.2859 89.3492 15.4841C89.3492 15.0775 89.3266 14.6879 89.2813 14.3152C89.236 13.9425 89.1624 13.5529 89.0605 13.1463C88.9699 12.7397 88.8511 12.2993 88.7039 11.8249C88.568 11.3393 88.3982 10.7859 88.1944 10.1648C88.5907 10.0406 88.9699 9.92762 89.3323 9.82598C89.6946 9.72433 90.0512 9.62834 90.4022 9.53799C90.7532 9.44764 91.1042 9.36294 91.4551 9.28388C91.8061 9.20483 92.1798 9.12577 92.576 9.04671C92.8364 9.58881 93.0516 10.0575 93.2214 10.4528C93.3912 10.848 93.5327 11.232 93.646 11.6047C93.7705 11.9887 93.8611 12.3783 93.9177 12.7736C93.9856 13.1576 94.0196 13.5642 94.0196 13.9933C94.0196 14.7387 93.9347 15.501 93.7648 16.2803C93.6063 17.0483 93.3969 17.8275 93.1365 18.6181C92.8647 19.4086 92.5477 20.1992 92.1854 20.9897C91.8231 21.769 91.4438 22.537 91.0475 23.2936C90.6626 24.039 90.272 24.7618 89.8757 25.462C89.4794 26.1622 89.1058 26.8229 88.7548 27.444H83.3202L81.7238 21.2777L79.1424 27.444H73.7757L69.1903 9.57187H73.7248L77.3252 23.9204L80.535 16.4497L78.7348 9.57187H83.3542L86.8697 23.9204Z" stroke="black" stroke-width="0.701031" mask="url(#path-2-outside-1_24_17)"/>
<path d="M100.199 1C100.584 1 100.946 1.07341 101.286 1.22023C101.637 1.36704 101.937 1.57033 102.186 1.83008C102.446 2.07854 102.65 2.37782 102.797 2.72793C102.944 3.06674 103.018 3.42813 103.018 3.81212C103.018 4.20739 102.944 4.57444 102.797 4.91324C102.65 5.25205 102.446 5.55133 102.186 5.81109C101.937 6.07084 101.637 6.27413 101.286 6.42094C100.946 6.56776 100.584 6.64117 100.199 6.64117C99.8025 6.64117 99.4346 6.56776 99.0949 6.42094C98.7552 6.27413 98.4552 6.07084 98.1948 5.81109C97.9344 5.55133 97.7306 5.25205 97.5834 4.91324C97.4362 4.57444 97.3626 4.20739 97.3626 3.81212C97.3626 3.42813 97.4362 3.06674 97.5834 2.72793C97.7306 2.37782 97.9344 2.07854 98.1948 1.83008C98.4552 1.57033 98.7552 1.36704 99.0949 1.22023C99.4346 1.07341 99.8025 1 100.199 1ZM102.508 9.58881V27.2069H97.8551V9.58881H102.508Z" stroke="black" stroke-width="0.701031" mask="url(#path-2-outside-1_24_17)"/>
<path d="M111.835 12.4179C113.149 10.2721 115.005 9.19918 117.406 9.19918C118.594 9.19918 119.596 9.4307 120.412 9.89374C121.227 10.3568 121.883 10.9836 122.382 11.7741C122.891 12.5534 123.253 13.4625 123.469 14.5015C123.695 15.5293 123.808 16.6191 123.808 17.771C123.808 19.3973 123.587 20.826 123.146 22.057C122.716 23.2767 122.104 24.2988 121.312 25.1232C120.519 25.9476 119.568 26.5688 118.459 26.9867C117.36 27.4045 116.143 27.6134 114.807 27.6134C114.32 27.6134 113.845 27.5909 113.381 27.5457C112.928 27.5005 112.469 27.444 112.005 27.3763V34H107.369V15.3486C107.369 14.8178 107.363 14.3208 107.352 13.8578C107.352 13.3948 107.335 12.9543 107.301 12.5364C107.267 12.1186 107.216 11.712 107.148 11.3167C107.091 10.9102 107.006 10.5036 106.893 10.097C107.618 9.89374 108.303 9.72433 108.948 9.58881C109.593 9.45328 110.29 9.32341 111.037 9.19918C111.116 9.43634 111.19 9.66222 111.258 9.8768C111.326 10.0914 111.382 10.3229 111.428 10.5714C111.484 10.8198 111.529 11.0909 111.563 11.3845C111.597 11.6781 111.626 12.0226 111.648 12.4179H111.835ZM111.954 23.8866C112.86 24.1124 113.703 24.2254 114.485 24.2254C115.153 24.2254 115.77 24.135 116.336 23.9543C116.913 23.7736 117.406 23.48 117.813 23.0734C118.232 22.6668 118.56 22.1417 118.798 21.4979C119.036 20.8542 119.155 20.0693 119.155 19.1432C119.155 18.1833 119.115 17.3024 119.036 16.5005C118.957 15.6987 118.798 15.0098 118.56 14.4338C118.323 13.8465 117.983 13.3948 117.541 13.0785C117.1 12.751 116.517 12.5873 115.792 12.5873C115.26 12.5873 114.79 12.6946 114.383 12.9091C113.986 13.1237 113.624 13.423 113.296 13.807C113.047 14.078 112.815 14.3886 112.599 14.7387C112.384 15.0775 112.169 15.4446 111.954 15.8398V23.8866Z" stroke="black" stroke-width="0.701031" mask="url(#path-2-outside-1_24_17)"/>
<path d="M142.743 26.4107C142.279 26.6027 141.77 26.7721 141.215 26.9189C140.671 27.0657 140.1 27.1899 139.5 27.2916C138.899 27.3932 138.288 27.4723 137.665 27.5287C137.054 27.5852 136.454 27.6134 135.865 27.6134C132.887 27.6134 130.634 26.902 129.106 25.479C127.589 24.0447 126.83 21.8537 126.83 18.9061C126.83 17.596 126.983 16.3537 127.289 15.1792C127.594 14.0046 128.087 12.9769 128.766 12.096C129.457 11.2038 130.357 10.4979 131.466 9.97844C132.587 9.45893 133.957 9.19918 135.576 9.19918C138.407 9.19918 140.518 9.9502 141.911 11.4523C143.304 12.943 144 15.2243 144 18.2962V19.6345H131.45C131.472 20.4025 131.563 21.0801 131.721 21.6674C131.88 22.2546 132.14 22.7515 132.502 23.1581C132.876 23.5534 133.363 23.8583 133.963 24.0729C134.563 24.2762 135.316 24.3778 136.222 24.3778C137.014 24.3778 137.869 24.2818 138.786 24.0898C139.703 23.8866 140.66 23.5986 141.656 23.2259L142.743 26.4107ZM139.347 16.6191C139.267 13.8296 138.011 12.4348 135.576 12.4348C134.32 12.4348 133.363 12.7962 132.706 13.519C132.061 14.2418 131.665 15.2752 131.517 16.6191H139.347Z" stroke="black" stroke-width="0.701031" mask="url(#path-2-outside-1_24_17)"/>
</svg>
