<svg width="137" height="44" viewBox="0 0 137 44" fill="none" xmlns="http://www.w3.org/2000/svg">
<path fill-rule="evenodd" clip-rule="evenodd" d="M28.4555 2.44666C29.0045 0.492971 27.1118 -0.662302 25.3833 0.571295L1.25308 17.7907C-0.621556 19.1285 -0.326683 21.7938 1.69602 21.7938H8.05015V21.7445H20.4341L10.3435 25.3109L5.89511 41.141C5.34604 43.0947 7.23858 44.25 8.96731 43.0163L33.0975 25.797C34.9721 24.4592 34.6771 21.7938 32.6546 21.7938H23.0187L28.4555 2.44666Z" fill="#3E45EB"/>
<mask id="path-2-outside-1_2_45" maskUnits="userSpaceOnUse" x="41.7629" y="4.67011" width="95" height="35" fill="black">
<rect fill="white" x="41.7629" y="4.67011" width="95" height="35"/>
<path d="M43.9963 27.6245C44.9186 27.9853 45.902 28.2898 46.9465 28.5378C48.0022 28.7746 49.1467 28.893 50.3801 28.893C51.1802 28.893 51.9136 28.8197 52.5803 28.6731C53.247 28.5265 53.8193 28.2954 54.2971 27.9797C54.786 27.6639 55.1638 27.2636 55.4305 26.7788C55.7083 26.2826 55.8472 25.6906 55.8472 25.0028C55.8472 24.2586 55.6972 23.6666 55.3972 23.2268C55.1083 22.7871 54.6971 22.4262 54.1638 22.1443C53.6304 21.8624 52.9859 21.6256 52.2303 21.4339C51.4747 21.2423 50.6357 21.028 49.7134 20.7912C48.68 20.5206 47.7355 20.2105 46.8799 19.8609C46.0354 19.5114 45.3131 19.0604 44.713 18.5078C44.113 17.9553 43.6463 17.2731 43.3129 16.4612C42.9796 15.6494 42.8129 14.6458 42.8129 13.4505C42.8129 12.6499 42.9407 11.9339 43.1963 11.3025C43.4629 10.671 43.8185 10.1241 44.263 9.66181C44.7075 9.18822 45.2186 8.78792 45.7965 8.46092C46.3854 8.13391 46.9965 7.86893 47.6299 7.66596C48.2744 7.46299 48.93 7.3164 49.5967 7.2262C50.2635 7.13599 50.8968 7.09088 51.4969 7.09088C51.9192 7.09088 52.4247 7.11344 53.0137 7.15854C53.6137 7.20364 54.2471 7.28821 54.9138 7.41225C55.5917 7.52501 56.2862 7.67724 56.9973 7.86893C57.7196 8.06062 58.4141 8.30305 59.0808 8.59623L57.8974 11.5393C57.0084 11.2123 56.0806 10.9473 55.1138 10.7443C54.1582 10.5413 53.1526 10.4399 52.0969 10.4399C51.4302 10.4399 50.8191 10.4962 50.2635 10.609C49.7079 10.7105 49.2245 10.8796 48.8134 11.1164C48.4133 11.3532 48.1022 11.6633 47.8799 12.0467C47.6577 12.4301 47.5466 12.8924 47.5466 13.4336C47.5466 14.1327 47.6799 14.6796 47.9466 15.0743C48.2244 15.4689 48.6189 15.7903 49.13 16.0384C49.6412 16.2865 50.2635 16.5007 50.9969 16.6811C51.7414 16.8503 52.5803 17.0589 53.5137 17.3069C54.536 17.5776 55.475 17.8989 56.3306 18.271C57.1973 18.6319 57.9418 19.1055 58.5641 19.6918C59.1975 20.2669 59.692 20.9829 60.0476 21.8399C60.4031 22.6969 60.5809 23.7512 60.5809 25.0028C60.5809 26.1078 60.4087 27.055 60.0642 27.8443C59.7198 28.6337 59.2697 29.299 58.7141 29.8402C58.1585 30.3702 57.5251 30.793 56.814 31.1088C56.1028 31.4245 55.3805 31.6669 54.6471 31.8361C53.9138 32.0052 53.2026 32.1123 52.5136 32.1574C51.8247 32.2138 51.2191 32.242 50.6968 32.242C50.1857 32.2307 49.6079 32.1969 48.9634 32.1405C48.33 32.0841 47.6633 31.9939 46.9632 31.8699C46.2632 31.7458 45.552 31.5823 44.8297 31.3794C44.1185 31.1651 43.4296 30.9058 42.7629 30.6013L43.9963 27.6245Z"/>
<path d="M79.9298 28.5547C80.241 27.7992 80.541 27.0832 80.8299 26.4067C81.1299 25.7301 81.3911 25.0648 81.6133 24.4108C81.8466 23.7455 82.03 23.069 82.1633 22.3811C82.2967 21.682 82.3634 20.9322 82.3634 20.1316C82.3634 19.7256 82.3411 19.3366 82.2967 18.9645C82.2522 18.5924 82.18 18.2034 82.08 17.7974C81.9911 17.3915 81.8744 16.9517 81.73 16.4781C81.5966 15.9933 81.43 15.4408 81.2299 14.8206C81.6189 14.6965 81.9911 14.5838 82.3467 14.4823C82.7023 14.3808 83.0523 14.285 83.3968 14.1948C83.7412 14.1046 84.0857 14.02 84.4302 13.9411C84.7747 13.8621 85.1413 13.7832 85.5303 13.7043C85.7858 14.2455 85.997 14.7135 86.1637 15.1081C86.3303 15.5028 86.4692 15.8862 86.5804 16.2583C86.7026 16.6417 86.7915 17.0307 86.847 17.4253C86.9137 17.8087 86.947 18.2147 86.947 18.6431C86.947 19.3874 86.8637 20.1485 86.697 20.9265C86.5415 21.6933 86.3359 22.4713 86.0803 23.2607C85.8136 24.05 85.5025 24.8393 85.1469 25.6286C84.7913 26.4067 84.4191 27.1734 84.0302 27.9289C83.6523 28.6731 83.269 29.3948 82.8801 30.0939C82.4911 30.793 82.1245 31.4527 81.78 32.0728H76.4462L74.8794 25.9162L72.3459 32.0728H67.0788L62.5785 14.2286H67.0288L70.5624 28.5547L73.7127 21.0957L71.9459 14.2286H76.4796L79.9298 28.5547Z"/>
<path d="M93.0116 5.67011C93.3894 5.67011 93.745 5.7434 94.0783 5.88999C94.4228 6.03658 94.7173 6.23955 94.9617 6.49889C95.2173 6.74697 95.4173 7.04578 95.5618 7.39534C95.7062 7.73362 95.7785 8.09445 95.7785 8.47783C95.7785 8.87249 95.7062 9.23896 95.5618 9.57724C95.4173 9.91552 95.2173 10.2143 94.9617 10.4737C94.7173 10.733 94.4228 10.936 94.0783 11.0826C93.745 11.2292 93.3894 11.3025 93.0116 11.3025C92.6227 11.3025 92.2615 11.2292 91.9282 11.0826C91.5948 10.936 91.3003 10.733 91.0448 10.4737C90.7892 10.2143 90.5892 9.91552 90.4447 9.57724C90.3003 9.23896 90.228 8.87249 90.228 8.47783C90.228 8.09445 90.3003 7.73362 90.4447 7.39534C90.5892 7.04578 90.7892 6.74697 91.0448 6.49889C91.3003 6.23955 91.5948 6.03658 91.9282 5.88999C92.2615 5.7434 92.6227 5.67011 93.0116 5.67011ZM95.2784 14.2455V31.8361H90.7114V14.2455H95.2784Z"/>
<path d="M104.432 17.0701C105.721 14.9277 107.543 13.8565 109.899 13.8565C111.066 13.8565 112.049 14.0876 112.849 14.55C113.649 15.0123 114.294 15.6381 114.783 16.4274C115.283 17.2055 115.638 18.1132 115.85 19.1506C116.072 20.1767 116.183 21.2648 116.183 22.415C116.183 24.0387 115.966 25.4651 115.533 26.6942C115.111 27.912 114.511 28.9325 113.733 29.7556C112.955 30.5788 112.021 31.199 110.933 31.6162C109.855 32.0334 108.66 32.242 107.349 32.242C106.871 32.242 106.404 32.2194 105.949 32.1743C105.504 32.1292 105.054 32.0728 104.599 32.0052V38.6186H100.048V19.9963C100.048 19.4663 100.043 18.9701 100.032 18.5078C100.032 18.0455 100.015 17.6057 99.9817 17.1885C99.9483 16.7713 99.8983 16.3654 99.8317 15.9707C99.7761 15.5648 99.6928 15.1589 99.5816 14.7529C100.293 14.55 100.965 14.3808 101.598 14.2455C102.232 14.1102 102.915 13.9805 103.649 13.8565C103.726 14.0933 103.799 14.3188 103.865 14.533C103.932 14.7473 103.988 14.9784 104.032 15.2265C104.088 15.4746 104.132 15.7452 104.165 16.0384C104.199 16.3316 104.226 16.6755 104.249 17.0701H104.432ZM104.549 28.5209C105.438 28.7464 106.265 28.8592 107.032 28.8592C107.688 28.8592 108.293 28.769 108.849 28.5886C109.416 28.4081 109.899 28.115 110.299 27.709C110.71 27.3031 111.033 26.7788 111.266 26.136C111.499 25.4933 111.616 24.7096 111.616 23.785C111.616 22.8265 111.577 21.947 111.499 21.1464C111.421 20.3458 111.266 19.658 111.033 19.0829C110.799 18.4966 110.466 18.0455 110.032 17.7298C109.599 17.4028 109.027 17.2393 108.316 17.2393C107.793 17.2393 107.332 17.3464 106.932 17.5606C106.543 17.7749 106.188 18.0737 105.865 18.4571C105.621 18.7277 105.393 19.0378 105.182 19.3874C104.971 19.7256 104.76 20.0921 104.549 20.4868V28.5209Z"/>
<path d="M134.767 31.0411C134.311 31.2328 133.811 31.4019 133.266 31.5485C132.733 31.6951 132.172 31.8191 131.583 31.9206C130.994 32.0221 130.394 32.101 129.783 32.1574C129.183 32.2138 128.594 32.242 128.016 32.242C125.094 32.242 122.882 31.5316 121.382 30.1108C119.893 28.6788 119.149 26.4912 119.149 23.5482C119.149 22.2402 119.299 20.9998 119.599 19.8271C119.899 18.6544 120.382 17.6283 121.049 16.7488C121.727 15.858 122.61 15.1532 123.699 14.6345C124.799 14.1158 126.144 13.8565 127.733 13.8565C130.511 13.8565 132.583 14.6063 133.95 16.106C135.317 17.5945 136 19.8722 136 22.9393V24.2755H123.682C123.705 25.0423 123.794 25.7188 123.949 26.3052C124.105 26.8915 124.36 27.3877 124.716 27.7936C125.082 28.1883 125.56 28.4927 126.149 28.707C126.738 28.9099 127.477 29.0114 128.366 29.0114C129.144 29.0114 129.983 28.9156 130.883 28.7239C131.783 28.5209 132.722 28.2334 133.7 27.8613L134.767 31.0411ZM131.433 21.2648C131.355 18.4796 130.122 17.0871 127.733 17.0871C126.499 17.0871 125.56 17.4479 124.916 18.1695C124.282 18.8912 123.894 19.923 123.749 21.2648H131.433Z"/>
</mask>
<path d="M43.9963 27.6245C44.9186 27.9853 45.902 28.2898 46.9465 28.5378C48.0022 28.7746 49.1467 28.893 50.3801 28.893C51.1802 28.893 51.9136 28.8197 52.5803 28.6731C53.247 28.5265 53.8193 28.2954 54.2971 27.9797C54.786 27.6639 55.1638 27.2636 55.4305 26.7788C55.7083 26.2826 55.8472 25.6906 55.8472 25.0028C55.8472 24.2586 55.6972 23.6666 55.3972 23.2268C55.1083 22.7871 54.6971 22.4262 54.1638 22.1443C53.6304 21.8624 52.9859 21.6256 52.2303 21.4339C51.4747 21.2423 50.6357 21.028 49.7134 20.7912C48.68 20.5206 47.7355 20.2105 46.8799 19.8609C46.0354 19.5114 45.3131 19.0604 44.713 18.5078C44.113 17.9553 43.6463 17.2731 43.3129 16.4612C42.9796 15.6494 42.8129 14.6458 42.8129 13.4505C42.8129 12.6499 42.9407 11.9339 43.1963 11.3025C43.4629 10.671 43.8185 10.1241 44.263 9.66181C44.7075 9.18822 45.2186 8.78792 45.7965 8.46092C46.3854 8.13391 46.9965 7.86893 47.6299 7.66596C48.2744 7.46299 48.93 7.3164 49.5967 7.2262C50.2635 7.13599 50.8968 7.09088 51.4969 7.09088C51.9192 7.09088 52.4247 7.11344 53.0137 7.15854C53.6137 7.20364 54.2471 7.28821 54.9138 7.41225C55.5917 7.52501 56.2862 7.67724 56.9973 7.86893C57.7196 8.06062 58.4141 8.30305 59.0808 8.59623L57.8974 11.5393C57.0084 11.2123 56.0806 10.9473 55.1138 10.7443C54.1582 10.5413 53.1526 10.4399 52.0969 10.4399C51.4302 10.4399 50.8191 10.4962 50.2635 10.609C49.7079 10.7105 49.2245 10.8796 48.8134 11.1164C48.4133 11.3532 48.1022 11.6633 47.8799 12.0467C47.6577 12.4301 47.5466 12.8924 47.5466 13.4336C47.5466 14.1327 47.6799 14.6796 47.9466 15.0743C48.2244 15.4689 48.6189 15.7903 49.13 16.0384C49.6412 16.2865 50.2635 16.5007 50.9969 16.6811C51.7414 16.8503 52.5803 17.0589 53.5137 17.3069C54.536 17.5776 55.475 17.8989 56.3306 18.271C57.1973 18.6319 57.9418 19.1055 58.5641 19.6918C59.1975 20.2669 59.692 20.9829 60.0476 21.8399C60.4031 22.6969 60.5809 23.7512 60.5809 25.0028C60.5809 26.1078 60.4087 27.055 60.0642 27.8443C59.7198 28.6337 59.2697 29.299 58.7141 29.8402C58.1585 30.3702 57.5251 30.793 56.814 31.1088C56.1028 31.4245 55.3805 31.6669 54.6471 31.8361C53.9138 32.0052 53.2026 32.1123 52.5136 32.1574C51.8247 32.2138 51.2191 32.242 50.6968 32.242C50.1857 32.2307 49.6079 32.1969 48.9634 32.1405C48.33 32.0841 47.6633 31.9939 46.9632 31.8699C46.2632 31.7458 45.552 31.5823 44.8297 31.3794C44.1185 31.1651 43.4296 30.9058 42.7629 30.6013L43.9963 27.6245Z" fill="#36393C"/>
<path d="M79.9298 28.5547C80.241 27.7992 80.541 27.0832 80.8299 26.4067C81.1299 25.7301 81.3911 25.0648 81.6133 24.4108C81.8466 23.7455 82.03 23.069 82.1633 22.3811C82.2967 21.682 82.3634 20.9322 82.3634 20.1316C82.3634 19.7256 82.3411 19.3366 82.2967 18.9645C82.2522 18.5924 82.18 18.2034 82.08 17.7974C81.9911 17.3915 81.8744 16.9517 81.73 16.4781C81.5966 15.9933 81.43 15.4408 81.2299 14.8206C81.6189 14.6965 81.9911 14.5838 82.3467 14.4823C82.7023 14.3808 83.0523 14.285 83.3968 14.1948C83.7412 14.1046 84.0857 14.02 84.4302 13.9411C84.7747 13.8621 85.1413 13.7832 85.5303 13.7043C85.7858 14.2455 85.997 14.7135 86.1637 15.1081C86.3303 15.5028 86.4692 15.8862 86.5804 16.2583C86.7026 16.6417 86.7915 17.0307 86.847 17.4253C86.9137 17.8087 86.947 18.2147 86.947 18.6431C86.947 19.3874 86.8637 20.1485 86.697 20.9265C86.5415 21.6933 86.3359 22.4713 86.0803 23.2607C85.8136 24.05 85.5025 24.8393 85.1469 25.6286C84.7913 26.4067 84.4191 27.1734 84.0302 27.9289C83.6523 28.6731 83.269 29.3948 82.8801 30.0939C82.4911 30.793 82.1245 31.4527 81.78 32.0728H76.4462L74.8794 25.9162L72.3459 32.0728H67.0788L62.5785 14.2286H67.0288L70.5624 28.5547L73.7127 21.0957L71.9459 14.2286H76.4796L79.9298 28.5547Z" fill="#36393C"/>
<path d="M93.0116 5.67011C93.3894 5.67011 93.745 5.7434 94.0783 5.88999C94.4228 6.03658 94.7173 6.23955 94.9617 6.49889C95.2173 6.74697 95.4173 7.04578 95.5618 7.39534C95.7062 7.73362 95.7785 8.09445 95.7785 8.47783C95.7785 8.87249 95.7062 9.23896 95.5618 9.57724C95.4173 9.91552 95.2173 10.2143 94.9617 10.4737C94.7173 10.733 94.4228 10.936 94.0783 11.0826C93.745 11.2292 93.3894 11.3025 93.0116 11.3025C92.6227 11.3025 92.2615 11.2292 91.9282 11.0826C91.5948 10.936 91.3003 10.733 91.0448 10.4737C90.7892 10.2143 90.5892 9.91552 90.4447 9.57724C90.3003 9.23896 90.228 8.87249 90.228 8.47783C90.228 8.09445 90.3003 7.73362 90.4447 7.39534C90.5892 7.04578 90.7892 6.74697 91.0448 6.49889C91.3003 6.23955 91.5948 6.03658 91.9282 5.88999C92.2615 5.7434 92.6227 5.67011 93.0116 5.67011ZM95.2784 14.2455V31.8361H90.7114V14.2455H95.2784Z" fill="#36393C"/>
<path d="M104.432 17.0701C105.721 14.9277 107.543 13.8565 109.899 13.8565C111.066 13.8565 112.049 14.0876 112.849 14.55C113.649 15.0123 114.294 15.6381 114.783 16.4274C115.283 17.2055 115.638 18.1132 115.85 19.1506C116.072 20.1767 116.183 21.2648 116.183 22.415C116.183 24.0387 115.966 25.4651 115.533 26.6942C115.111 27.912 114.511 28.9325 113.733 29.7556C112.955 30.5788 112.021 31.199 110.933 31.6162C109.855 32.0334 108.66 32.242 107.349 32.242C106.871 32.242 106.404 32.2194 105.949 32.1743C105.504 32.1292 105.054 32.0728 104.599 32.0052V38.6186H100.048V19.9963C100.048 19.4663 100.043 18.9701 100.032 18.5078C100.032 18.0455 100.015 17.6057 99.9817 17.1885C99.9483 16.7713 99.8983 16.3654 99.8317 15.9707C99.7761 15.5648 99.6928 15.1589 99.5816 14.7529C100.293 14.55 100.965 14.3808 101.598 14.2455C102.232 14.1102 102.915 13.9805 103.649 13.8565C103.726 14.0933 103.799 14.3188 103.865 14.533C103.932 14.7473 103.988 14.9784 104.032 15.2265C104.088 15.4746 104.132 15.7452 104.165 16.0384C104.199 16.3316 104.226 16.6755 104.249 17.0701H104.432ZM104.549 28.5209C105.438 28.7464 106.265 28.8592 107.032 28.8592C107.688 28.8592 108.293 28.769 108.849 28.5886C109.416 28.4081 109.899 28.115 110.299 27.709C110.71 27.3031 111.033 26.7788 111.266 26.136C111.499 25.4933 111.616 24.7096 111.616 23.785C111.616 22.8265 111.577 21.947 111.499 21.1464C111.421 20.3458 111.266 19.658 111.033 19.0829C110.799 18.4966 110.466 18.0455 110.032 17.7298C109.599 17.4028 109.027 17.2393 108.316 17.2393C107.793 17.2393 107.332 17.3464 106.932 17.5606C106.543 17.7749 106.188 18.0737 105.865 18.4571C105.621 18.7277 105.393 19.0378 105.182 19.3874C104.971 19.7256 104.76 20.0921 104.549 20.4868V28.5209Z" fill="#36393C"/>
<path d="M134.767 31.0411C134.311 31.2328 133.811 31.4019 133.266 31.5485C132.733 31.6951 132.172 31.8191 131.583 31.9206C130.994 32.0221 130.394 32.101 129.783 32.1574C129.183 32.2138 128.594 32.242 128.016 32.242C125.094 32.242 122.882 31.5316 121.382 30.1108C119.893 28.6788 119.149 26.4912 119.149 23.5482C119.149 22.2402 119.299 20.9998 119.599 19.8271C119.899 18.6544 120.382 17.6283 121.049 16.7488C121.727 15.858 122.61 15.1532 123.699 14.6345C124.799 14.1158 126.144 13.8565 127.733 13.8565C130.511 13.8565 132.583 14.6063 133.95 16.106C135.317 17.5945 136 19.8722 136 22.9393V24.2755H123.682C123.705 25.0423 123.794 25.7188 123.949 26.3052C124.105 26.8915 124.36 27.3877 124.716 27.7936C125.082 28.1883 125.56 28.4927 126.149 28.707C126.738 28.9099 127.477 29.0114 128.366 29.0114C129.144 29.0114 129.983 28.9156 130.883 28.7239C131.783 28.5209 132.722 28.2334 133.7 27.8613L134.767 31.0411ZM131.433 21.2648C131.355 18.4796 130.122 17.0871 127.733 17.0871C126.499 17.0871 125.56 17.4479 124.916 18.1695C124.282 18.8912 123.894 19.923 123.749 21.2648H131.433Z" fill="#36393C"/>
<path d="M43.9963 27.6245C44.9186 27.9853 45.902 28.2898 46.9465 28.5378C48.0022 28.7746 49.1467 28.893 50.3801 28.893C51.1802 28.893 51.9136 28.8197 52.5803 28.6731C53.247 28.5265 53.8193 28.2954 54.2971 27.9797C54.786 27.6639 55.1638 27.2636 55.4305 26.7788C55.7083 26.2826 55.8472 25.6906 55.8472 25.0028C55.8472 24.2586 55.6972 23.6666 55.3972 23.2268C55.1083 22.7871 54.6971 22.4262 54.1638 22.1443C53.6304 21.8624 52.9859 21.6256 52.2303 21.4339C51.4747 21.2423 50.6357 21.028 49.7134 20.7912C48.68 20.5206 47.7355 20.2105 46.8799 19.8609C46.0354 19.5114 45.3131 19.0604 44.713 18.5078C44.113 17.9553 43.6463 17.2731 43.3129 16.4612C42.9796 15.6494 42.8129 14.6458 42.8129 13.4505C42.8129 12.6499 42.9407 11.9339 43.1963 11.3025C43.4629 10.671 43.8185 10.1241 44.263 9.66181C44.7075 9.18822 45.2186 8.78792 45.7965 8.46092C46.3854 8.13391 46.9965 7.86893 47.6299 7.66596C48.2744 7.46299 48.93 7.3164 49.5967 7.2262C50.2635 7.13599 50.8968 7.09088 51.4969 7.09088C51.9192 7.09088 52.4247 7.11344 53.0137 7.15854C53.6137 7.20364 54.2471 7.28821 54.9138 7.41225C55.5917 7.52501 56.2862 7.67724 56.9973 7.86893C57.7196 8.06062 58.4141 8.30305 59.0808 8.59623L57.8974 11.5393C57.0084 11.2123 56.0806 10.9473 55.1138 10.7443C54.1582 10.5413 53.1526 10.4399 52.0969 10.4399C51.4302 10.4399 50.8191 10.4962 50.2635 10.609C49.7079 10.7105 49.2245 10.8796 48.8134 11.1164C48.4133 11.3532 48.1022 11.6633 47.8799 12.0467C47.6577 12.4301 47.5466 12.8924 47.5466 13.4336C47.5466 14.1327 47.6799 14.6796 47.9466 15.0743C48.2244 15.4689 48.6189 15.7903 49.13 16.0384C49.6412 16.2865 50.2635 16.5007 50.9969 16.6811C51.7414 16.8503 52.5803 17.0589 53.5137 17.3069C54.536 17.5776 55.475 17.8989 56.3306 18.271C57.1973 18.6319 57.9418 19.1055 58.5641 19.6918C59.1975 20.2669 59.692 20.9829 60.0476 21.8399C60.4031 22.6969 60.5809 23.7512 60.5809 25.0028C60.5809 26.1078 60.4087 27.055 60.0642 27.8443C59.7198 28.6337 59.2697 29.299 58.7141 29.8402C58.1585 30.3702 57.5251 30.793 56.814 31.1088C56.1028 31.4245 55.3805 31.6669 54.6471 31.8361C53.9138 32.0052 53.2026 32.1123 52.5136 32.1574C51.8247 32.2138 51.2191 32.242 50.6968 32.242C50.1857 32.2307 49.6079 32.1969 48.9634 32.1405C48.33 32.0841 47.6633 31.9939 46.9632 31.8699C46.2632 31.7458 45.552 31.5823 44.8297 31.3794C44.1185 31.1651 43.4296 30.9058 42.7629 30.6013L43.9963 27.6245Z" stroke="#36393C" stroke-width="0.701031" mask="url(#path-2-outside-1_2_45)"/>
<path d="M79.9298 28.5547C80.241 27.7992 80.541 27.0832 80.8299 26.4067C81.1299 25.7301 81.3911 25.0648 81.6133 24.4108C81.8466 23.7455 82.03 23.069 82.1633 22.3811C82.2967 21.682 82.3634 20.9322 82.3634 20.1316C82.3634 19.7256 82.3411 19.3366 82.2967 18.9645C82.2522 18.5924 82.18 18.2034 82.08 17.7974C81.9911 17.3915 81.8744 16.9517 81.73 16.4781C81.5966 15.9933 81.43 15.4408 81.2299 14.8206C81.6189 14.6965 81.9911 14.5838 82.3467 14.4823C82.7023 14.3808 83.0523 14.285 83.3968 14.1948C83.7412 14.1046 84.0857 14.02 84.4302 13.9411C84.7747 13.8621 85.1413 13.7832 85.5303 13.7043C85.7858 14.2455 85.997 14.7135 86.1637 15.1081C86.3303 15.5028 86.4692 15.8862 86.5804 16.2583C86.7026 16.6417 86.7915 17.0307 86.847 17.4253C86.9137 17.8087 86.947 18.2147 86.947 18.6431C86.947 19.3874 86.8637 20.1485 86.697 20.9265C86.5415 21.6933 86.3359 22.4713 86.0803 23.2607C85.8136 24.05 85.5025 24.8393 85.1469 25.6286C84.7913 26.4067 84.4191 27.1734 84.0302 27.9289C83.6523 28.6731 83.269 29.3948 82.8801 30.0939C82.4911 30.793 82.1245 31.4527 81.78 32.0728H76.4462L74.8794 25.9162L72.3459 32.0728H67.0788L62.5785 14.2286H67.0288L70.5624 28.5547L73.7127 21.0957L71.9459 14.2286H76.4796L79.9298 28.5547Z" stroke="#36393C" stroke-width="0.701031" mask="url(#path-2-outside-1_2_45)"/>
<path d="M93.0116 5.67011C93.3894 5.67011 93.745 5.7434 94.0783 5.88999C94.4228 6.03658 94.7173 6.23955 94.9617 6.49889C95.2173 6.74697 95.4173 7.04578 95.5618 7.39534C95.7062 7.73362 95.7785 8.09445 95.7785 8.47783C95.7785 8.87249 95.7062 9.23896 95.5618 9.57724C95.4173 9.91552 95.2173 10.2143 94.9617 10.4737C94.7173 10.733 94.4228 10.936 94.0783 11.0826C93.745 11.2292 93.3894 11.3025 93.0116 11.3025C92.6227 11.3025 92.2615 11.2292 91.9282 11.0826C91.5948 10.936 91.3003 10.733 91.0448 10.4737C90.7892 10.2143 90.5892 9.91552 90.4447 9.57724C90.3003 9.23896 90.228 8.87249 90.228 8.47783C90.228 8.09445 90.3003 7.73362 90.4447 7.39534C90.5892 7.04578 90.7892 6.74697 91.0448 6.49889C91.3003 6.23955 91.5948 6.03658 91.9282 5.88999C92.2615 5.7434 92.6227 5.67011 93.0116 5.67011ZM95.2784 14.2455V31.8361H90.7114V14.2455H95.2784Z" stroke="#36393C" stroke-width="0.701031" mask="url(#path-2-outside-1_2_45)"/>
<path d="M104.432 17.0701C105.721 14.9277 107.543 13.8565 109.899 13.8565C111.066 13.8565 112.049 14.0876 112.849 14.55C113.649 15.0123 114.294 15.6381 114.783 16.4274C115.283 17.2055 115.638 18.1132 115.85 19.1506C116.072 20.1767 116.183 21.2648 116.183 22.415C116.183 24.0387 115.966 25.4651 115.533 26.6942C115.111 27.912 114.511 28.9325 113.733 29.7556C112.955 30.5788 112.021 31.199 110.933 31.6162C109.855 32.0334 108.66 32.242 107.349 32.242C106.871 32.242 106.404 32.2194 105.949 32.1743C105.504 32.1292 105.054 32.0728 104.599 32.0052V38.6186H100.048V19.9963C100.048 19.4663 100.043 18.9701 100.032 18.5078C100.032 18.0455 100.015 17.6057 99.9817 17.1885C99.9483 16.7713 99.8983 16.3654 99.8317 15.9707C99.7761 15.5648 99.6928 15.1589 99.5816 14.7529C100.293 14.55 100.965 14.3808 101.598 14.2455C102.232 14.1102 102.915 13.9805 103.649 13.8565C103.726 14.0933 103.799 14.3188 103.865 14.533C103.932 14.7473 103.988 14.9784 104.032 15.2265C104.088 15.4746 104.132 15.7452 104.165 16.0384C104.199 16.3316 104.226 16.6755 104.249 17.0701H104.432ZM104.549 28.5209C105.438 28.7464 106.265 28.8592 107.032 28.8592C107.688 28.8592 108.293 28.769 108.849 28.5886C109.416 28.4081 109.899 28.115 110.299 27.709C110.71 27.3031 111.033 26.7788 111.266 26.136C111.499 25.4933 111.616 24.7096 111.616 23.785C111.616 22.8265 111.577 21.947 111.499 21.1464C111.421 20.3458 111.266 19.658 111.033 19.0829C110.799 18.4966 110.466 18.0455 110.032 17.7298C109.599 17.4028 109.027 17.2393 108.316 17.2393C107.793 17.2393 107.332 17.3464 106.932 17.5606C106.543 17.7749 106.188 18.0737 105.865 18.4571C105.621 18.7277 105.393 19.0378 105.182 19.3874C104.971 19.7256 104.76 20.0921 104.549 20.4868V28.5209Z" stroke="#36393C" stroke-width="0.701031" mask="url(#path-2-outside-1_2_45)"/>
<path d="M134.767 31.0411C134.311 31.2328 133.811 31.4019 133.266 31.5485C132.733 31.6951 132.172 31.8191 131.583 31.9206C130.994 32.0221 130.394 32.101 129.783 32.1574C129.183 32.2138 128.594 32.242 128.016 32.242C125.094 32.242 122.882 31.5316 121.382 30.1108C119.893 28.6788 119.149 26.4912 119.149 23.5482C119.149 22.2402 119.299 20.9998 119.599 19.8271C119.899 18.6544 120.382 17.6283 121.049 16.7488C121.727 15.858 122.61 15.1532 123.699 14.6345C124.799 14.1158 126.144 13.8565 127.733 13.8565C130.511 13.8565 132.583 14.6063 133.95 16.106C135.317 17.5945 136 19.8722 136 22.9393V24.2755H123.682C123.705 25.0423 123.794 25.7188 123.949 26.3052C124.105 26.8915 124.36 27.3877 124.716 27.7936C125.082 28.1883 125.56 28.4927 126.149 28.707C126.738 28.9099 127.477 29.0114 128.366 29.0114C129.144 29.0114 129.983 28.9156 130.883 28.7239C131.783 28.5209 132.722 28.2334 133.7 27.8613L134.767 31.0411ZM131.433 21.2648C131.355 18.4796 130.122 17.0871 127.733 17.0871C126.499 17.0871 125.56 17.4479 124.916 18.1695C124.282 18.8912 123.894 19.923 123.749 21.2648H131.433Z" stroke="#36393C" stroke-width="0.701031" mask="url(#path-2-outside-1_2_45)"/>
</svg>
